<?xml version="1.0" standalone="no"?><!DOCTYPE svg PUBLIC "-//W3C//DTD SVG 1.1//EN" "http://www.w3.org/Graphics/SVG/1.1/DTD/svg11.dtd"><svg t="1545640238074" class="icon" style="" viewBox="0 0 1024 1024" version="1.1" xmlns="http://www.w3.org/2000/svg" p-id="5309" xmlns:xlink="http://www.w3.org/1999/xlink" width="200" height="200"><defs><style type="text/css"></style></defs><path d="M312.541 778.57c-8.417 0.154-15.327 10.369-15.378 22.795-0.155 12.464 6.609 22.537 15.024 22.291 8.366-0.107 15.226-10.324 15.327-22.693 0.102-12.474-6.661-22.543-14.973-22.393zM412.163 864.121c-15.273-13.068-34.311-15.622-42.324-6.059-7.91 9.467-1.902 27.65 13.474 40.573 15.227 12.872 34.208 15.625 42.223 6.005 7.918-9.564 1.953-27.792-13.373-40.519zM651.658 848.244c-15.935 12.125-22.739 30.009-15.022 39.927 7.508 9.764 26.594 7.958 42.415-4.309 15.937-12.176 22.595-30.107 15.028-39.977-7.608-9.762-26.64-8.017-42.421 4.359zM536.457 881.753c-22.968 4.356-39.498 19.336-36.688 33.563 2.653 14.123 23.689 22.187 46.652 17.833 23.143-4.313 39.671-19.237 36.912-33.514-2.705-14.224-23.733-22.186-46.876-17.882zM453.485 526.682c0-8.369-6.863-15.229-15.325-15.229-8.416 0-15.377 6.858-15.377 15.229 0 8.516 6.961 15.325 15.377 15.325a15.295 15.295 0 0 0 15.325-15.325zM580.535 521.772c0 8.515 7.013 15.33 15.431 15.33 8.411 0 15.271-6.815 15.271-15.33 0-8.414-6.859-15.278-15.271-15.278-8.418 0-15.431 6.861-15.431 15.278z" fill="#515151" p-id="5310"></path><path d="M778.176 452.049c-25.941-9.715-53.597-3.405-58.756 23.041-4.7 23.941 6.501 34.504 22.842 39.969 16.345 5.466 36.972 32.359 12.229 92.16-20.686 49.841-92.265 58.758-92.265 58.758s21.634-29.402 34.462-69.324c-4.556-4.005-11.369-8.063-24.4-10.616-20.327-3.956-39.061-18.532-53.788-27.949-9.213-4.358-26.948-4.956-26.948-4.956-38.013 0-68.742 34.953-68.742-2.813 0-38.012 30.726-68.717 68.742-68.717 25.878 0 48.434 14.339 60.124 35.549 9.325 18.6 7.845 38.382 7.845 38.382s34.73-0.282 44.882 4.509c7.562-66.818-38.033-200.271-194.616-200.271-156.585 0-199.199 135.056-193.437 193.958 0.428 4.207 1.3 8.219 1.952 12.32 13.449-9.048 40.07-7.111 49.311-7.712-3.861-11.086 2.841-33.897 9.45-44.453 12.148-19.402 33.722-32.281 58.34-32.281 37.92 0 68.623 30.705 68.623 68.717 0 37.766-31.604 5.867-69.574 5.867-7.663 0-14.821 1.448-21.636 3.199-14.929 9.422-34.411 25.499-55.601 29.706-18.881 3.757-24.691 10.717-29.398 16.027 14.204 41.775 35.459 69.423 35.459 69.423-63.958-5.512-106.423-33.11-116.099-61.409s-11.371-47.556-3.356-71.927 62.707-60.457 16.927-93.414c-13.772-9.914-35.42-10.972-55.146 3.704-19.728 14.68-35.46 64.716-26.896 121.167C191.576 656.607 283.233 708.2 283.233 708.2s45.833 24.938 93.516 34.06l-10.465 4.207c-15.927 6.612-23.546 24.893-17.083 40.719 6.664 15.877 24.948 23.64 40.977 17.187l37.963-15.728-13.073 18.575c-9.967 14.075-6.564 33.563 7.512 43.525 14.177 9.971 33.658 6.67 43.627-7.406l28.706-40.478 6.156 32.66c3.159 16.936 19.487 28.104 36.442 24.989 17.028-3.151 28.146-19.378 25.14-36.302l-6.26-32.763 24.742 33.206c10.417 13.927 30.008 16.775 43.982 6.411 13.871-10.216 16.771-29.699 6.354-43.573l-21.839-29.205 44.479 25.896c14.777 8.81 34.01 3.755 42.926-11.174 8.61-14.819 3.71-33.954-11.168-42.722l-4.959-2.957c8.711-3.747 13.972-6.209 13.972-6.209s37.414-17.679 65.016-44.279c27.646-26.544 68.972-86.048 66.819-156.925-0.856-27.543-22.59-58.144-48.539-67.865zM736.607 770.761c-7.612-3.713-18.283 2.503-23.736 13.477-5.665 11.167-3.809 23.184 3.699 26.849 7.62 3.649 18.188-2.513 23.651-13.631 5.603-11.068 3.852-23.043-3.614-26.695zM237.203 287.296h85.723v31.761c0 8.541 1.965 15.004 5.892 19.382 3.928 4.381 9.078 6.574 15.451 6.574 6.494 0 11.672-2.132 15.543-6.402 3.865-4.269 5.804-10.787 5.804-19.554v-31.761h10.417c19.093 0 25.956-0.739 25.956-18.955s-8.863-19.296-29.028-19.296h-7.346v-132.17c0-19.809-8.652-29.712-25.955-29.712-5.353 0-9.934 1.795-13.748 5.379-3.813 3.584-8.682 9.366-14.597 17.334l-90.506 121.068c-2.504 3.304-16.052 21.124-16.052 29.027s1.608 12.808 8.113 19.98 16.036 7.345 24.333 7.345z m85.723-137.462v99.21h-73.428l73.428-99.21zM434.944 289.346c6.944 17.306 17.272 30.851 30.993 40.64 13.717 9.793 29.229 14.687 46.536 14.687 15.026 0 28.687-3.646 40.978-10.931 12.297-7.283 22.313-17.643 30.063-31.075 6.141-10.93 10.354-23.111 12.634-36.545 2.272-13.43 3.409-29.482 3.409-48.153 0-34.38-4.324-60.963-12.978-79.747-5.005-10.813-11.126-19.895-18.358-27.235-7.225-7.342-15.616-12.92-25.186-16.735-9.56-3.812-20.205-5.722-31.934-5.722-17.756 0-33.04 4.297-45.848 12.892-12.807 8.599-22.568 21.09-29.283 37.483-3.872 9.905-6.719 21.745-8.54 35.52-1.823 13.775-2.732 29.259-2.732 46.448 0 13.318 0.823 25.697 2.479 37.14 1.648 11.437 4.241 21.887 7.767 31.333z m45.508-143.44c5.864-15.141 16.308-22.712 31.341-22.712 10.47 0 18.663 3.389 24.588 10.159 5.917 6.776 10.128 16.796 12.635 30.055 2.507 13.264 3.756 30.313 3.756 51.145 0 21.971-1.195 39.731-3.585 53.277-2.39 13.549-6.547 23.965-12.463 31.25-5.921 7.288-14.122 10.929-24.597 10.929-10.136 0-18.158-3.5-24.074-10.501-5.919-7.002-10.131-17.334-12.635-30.993-2.508-13.66-3.76-31.189-3.76-52.596-0.001-31.534 2.934-54.872 8.794-70.013zM652.836 287.296h85.723v31.761c0 8.541 1.964 15.004 5.892 19.382 3.932 4.381 9.074 6.574 15.45 6.574 6.492 0 11.674-2.132 15.542-6.402 3.869-4.269 5.81-10.787 5.81-19.554v-31.761h10.415c8.652 0 15.141-1.505 19.466-4.523 4.324-3.017 6.492-7.828 6.492-14.432 0-8.083-2.648-13.319-7.941-15.709-5.295-2.391-12.326-3.587-21.091-3.587h-7.341v-132.17c0-19.809-8.653-29.712-25.954-29.712-5.357 0-9.938 1.795-13.748 5.379-3.817 3.584-8.687 9.366-14.602 17.334 0 0-100.178 134.073-101.773 136.522-1.598 2.448-4.779 8.435-4.779 13.573 0 8.426 2.28 14.016 8.109 19.98s14.248 7.345 24.33 7.345z m85.722-137.462v99.21h-73.426l73.426-99.21z" fill="#515151" p-id="5311"></path></svg>