<?xml version="1.0" standalone="no"?><!DOCTYPE svg PUBLIC "-//W3C//DTD SVG 1.1//EN" "http://www.w3.org/Graphics/SVG/1.1/DTD/svg11.dtd"><svg t="1542183530951" class="icon" style="" viewBox="0 0 1024 1024" version="1.1" xmlns="http://www.w3.org/2000/svg" p-id="1828" xmlns:xlink="http://www.w3.org/1999/xlink" width="200" height="200"><defs><style type="text/css"></style></defs><path d="M400.725333 848.418133v-447.146666h-65.536v453.700266h65.536v-6.5536z m399.36 46.08c0 32.904533-13.175467 52.6336-45.806933 52.6336H282.897067c-32.768 0-45.806933-13.1072-45.806934-46.08V263.099733H158.5152v637.952c0 65.7408 52.360533 118.3744 117.828267 118.3744h471.4496a117.623467 117.623467 0 0 0 117.623466-118.3744V263.099733h-71.953066l6.621866 631.466667z m-104.789333-46.08v-447.146666h-65.399467v453.700266c19.592533 0 39.253333 0 65.399467-6.5536 0 6.5536 0 0 0 0z m32.768-703.6928V72.362667c0-59.255467-45.8752-72.362667-98.304-72.362667h-235.52C335.189333 0 295.936 26.282667 295.936 72.362667v78.984533H34.133333v72.2944h955.733334V144.725333h-261.802667z m-360.0384 0v-52.6336c0-19.797333 13.1072-32.904533 26.146133-32.904533h235.7248c19.592533 0 32.768 13.1072 32.768 26.350933v52.565334H367.957333v6.621866z m183.227733 703.6928v-447.146666h-65.467733v453.700266c19.6608 0 39.253333 0 65.467733-6.5536 0 6.5536 0 0 0 0z" p-id="1829" fill="#bfbfbf"></path></svg>