<?xml version="1.0" standalone="no"?><!DOCTYPE svg PUBLIC "-//W3C//DTD SVG 1.1//EN" "http://www.w3.org/Graphics/SVG/1.1/DTD/svg11.dtd"><svg class="icon" width="200px" height="200.00px" viewBox="0 0 1024 1024" version="1.1" xmlns="http://www.w3.org/2000/svg"><path fill="#d81e06" d="M951.235584 578.541568c-5.289984 0-10.576896-2.036736-14.583808-6.100992l-420.656128-426.63936L87.213056 572.577792c-8.016896 7.979008-20.983808 7.949312-28.962816-0.067584-7.980032-8.016896-7.949312-20.983808 0.06656-28.962816L501.685248 102.254592c3.838976-3.820544 9.033728-5.9648 14.447616-5.9648 0.031744 0 0.063488 0 0.096256 0 5.448704 0.0256 10.661888 2.221056 14.487552 6.100992L965.819392 543.68256c7.94112 8.054784 7.84896 21.020672-0.2048 28.962816C961.624064 576.579584 956.429312 578.541568 951.235584 578.541568zM327.66464 927.70304c-21.992448 0-46.718976-0.047104-71.442432-0.190464-27.70432-0.157696-49.536-8.91904-64.887808-26.041344-23.215104-25.889792-21.958656-60.752896-21.34528-68.569088L169.98912 440.911872c0-11.311104 9.168896-20.48 20.48-20.48s20.48 9.168896 20.48 20.48l0 392.889344c0 0.768-0.016384 1.291264-0.101376 2.040832-0.105472 1.334272-1.68448 24.343552 11.121664 38.441984 7.41888 8.167424 18.699264 12.18048 34.487296 12.270592 50.226176 0.289792 100.514816 0.185344 127.583232 0.089088L384.039936 697.554944c0-11.311104 9.168896-20.48 20.48-20.48l238.450688 0c11.311104 0 20.48 9.168896 20.48 20.48s-9.168896 20.48-20.48 20.48L425.00096 718.034944l0 188.998656c0 11.264-9.097216 20.414464-20.361216 20.48C404.150272 927.516672 371.305472 927.70304 327.66464 927.70304zM777.513984 927.709184 610.60608 927.709184c-11.311104 0-20.48-9.168896-20.48-20.48s9.168896-20.48 20.48-20.48l166.907904 0c10.407936 0 25.211904-1.760256 33.586176-16.984064 5.291008-9.621504 5.691392-20.047872 5.711872-20.772864L816.812032 585.737216c0-11.311104 9.168896-20.48 20.48-20.48s20.48 9.168896 20.48 20.48l0 263.389184c0 1.994752-0.273408 20.016128-9.741312 38.419456C834.70848 913.445888 809.664512 927.709184 777.513984 927.709184z" /></svg>