<?xml version="1.0" standalone="no"?><!DOCTYPE svg PUBLIC "-//W3C//DTD SVG 1.1//EN" "http://www.w3.org/Graphics/SVG/1.1/DTD/svg11.dtd"><svg t="1539311345558" class="icon" style="" viewBox="0 0 1024 1024" version="1.1" xmlns="http://www.w3.org/2000/svg" p-id="3242" xmlns:xlink="http://www.w3.org/1999/xlink" width="200" height="200"><defs><style type="text/css"></style></defs><path d="M304 144c17.7 0 32 14.3 32 32v128c0 17.7-14.3 32-32 32s-32-14.3-32-32V176c0-17.7 14.3-32 32-32zM512 144c17.7 0 32 14.3 32 32v128c0 17.7-14.3 32-32 32s-32-14.3-32-32V176c0-17.7 14.3-32 32-32zM720 144c17.7 0 32 14.3 32 32v128c0 17.7-14.3 32-32 32s-32-14.3-32-32V176c0-17.7 14.3-32 32-32z" fill="#0076FF" p-id="3243"></path><path d="M192 368v416h640V368H192z m0-64h640c35.3 0 64 28.7 64 64v416c0 35.3-28.7 64-64 64H192c-35.3 0-64-28.7-64-64V368c0-35.3 28.7-64 64-64z m-64 176h752v32H128v-32zM64 784h896c17.7 0 32 14.3 32 32s-14.3 32-32 32H64c-17.7 0-32-14.3-32-32s14.3-32 32-32z" fill="#333333" p-id="3244"></path></svg>