<?xml version="1.0" standalone="no"?><!DOCTYPE svg PUBLIC "-//W3C//DTD SVG 1.1//EN" "http://www.w3.org/Graphics/SVG/1.1/DTD/svg11.dtd"><svg t="1542598250817" class="icon" style="" viewBox="0 0 1025 1024" version="1.1" xmlns="http://www.w3.org/2000/svg" p-id="2644" xmlns:xlink="http://www.w3.org/1999/xlink" width="200.1953125" height="200"><defs><style type="text/css"></style></defs><path d="M768.512 416.256H288.256V352.256c0-129.536 94.208-256 224.256-256 124.928 0 224.256 146.944 224.256 192 0 17.92 14.336 32.256 32.256 32.256s32.256-14.336 32.256-32.256c0-84.48-134.656-256-288.256-256-166.912 0-288.256 153.088-288.256 320v67.072c-57.856 10.24-96.256 49.664-96.256 117.76v334.336c0 80.384 52.224 120.832 128 120.832h512c75.776 0 128-40.448 128-120.832v-334.336c0-79.872-52.224-120.832-128-120.832z m64 455.168c0 29.696-7.68 56.832-64 56.832h-512c-56.32 0-64-27.136-64-56.832v-334.336c0-22.016 5.12-44.544 34.816-53.248 10.752-5.12 59.392-4.096 59.392-4.096h481.792c56.32 0 64 28.672 64 56.832v334.848z" fill="#dbdbdb" p-id="2645"></path><path d="M512.512 544.256c-53.248 0-96.256 43.008-96.256 96.256 0 41.984 26.624 77.312 64 90.624v95.744c0 20.48 14.336 37.376 32.256 37.376 17.408 0 32.256-16.896 32.256-37.376v-95.744c37.376-13.312 64-48.64 64-90.624-0.512-53.248-43.52-96.256-96.256-96.256z m0 128c-17.408 0-32.256-14.336-32.256-32.256 0-17.408 14.336-32.256 32.256-32.256 17.408 0 32.256 14.336 32.256 32.256s-14.848 32.256-32.256 32.256z" fill="#dbdbdb" p-id="2646"></path></svg>