<?xml version="1.0" standalone="no"?><!DOCTYPE svg PUBLIC "-//W3C//DTD SVG 1.1//EN" "http://www.w3.org/Graphics/SVG/1.1/DTD/svg11.dtd"><svg t="1548381462877" class="icon" style="" viewBox="0 0 1024 1024" version="1.1" xmlns="http://www.w3.org/2000/svg" p-id="3099" xmlns:xlink="http://www.w3.org/1999/xlink" width="200" height="200"><defs><style type="text/css"></style></defs><path d="M1023.917745 512.013482c0-37.270606-75.326215-65.394213-83.10799-100.309809-7.986558-36.007774 47.782828-94.746522 32.526454-127.307106-15.59768-33.004282-95.360873-24.847071-117.477496-53.243723-22.253146-28.464913 3.208276-106.316793-24.642287-129.081897-27.67991-22.662713-96.145876 19.898135-128.399286 3.993279-31.74145-15.700072-41.741713-97.169794-76.930353-105.361136C591.824457-7.215207 548.376214 61.557935 511.958873 61.557935c-36.417341 0-79.865584-68.773142-113.927915-60.854845-35.154509 8.191342-45.154773 89.661064-76.896222 105.327006-32.253409 15.938986-100.685245-26.655992-128.399286-3.99328-27.850563 22.765105-2.389141 100.616984-24.642287 129.116028-22.116623 28.328391-101.913946 20.20531-117.477496 53.243723-15.290505 32.526454 40.513012 91.299332 32.492323 127.307106C75.326215 446.585138 0 474.742876 0 512.047612c0 37.236475 75.326215 65.360083 83.10799 100.309809 8.020689 36.007774-47.782828 94.712391-32.526453 127.238845 15.59768 33.038413 95.360873 24.915332 117.511626 53.277853 22.184884 28.499044-3.242406 106.350923 24.608157 129.116028 27.67991 22.662713 96.145876-19.932265 128.433416-4.02741 31.70732 15.700072 41.741713 97.203925 76.896222 105.361136 34.06233 7.952428 77.510573-60.820714 113.927915-60.820714 36.417341 0 79.865584 68.773142 113.927914 60.820714 35.154509-8.191342 45.154773-89.661064 76.896223-105.327005 32.253409-15.938986 100.685245 26.690123 128.399285 4.027409 27.850563-22.765105 2.389141-100.616984 24.642287-129.116027 22.116623-28.396652 101.913946-20.239441 117.477496-53.311984 15.290505-32.492323-40.478882-91.231071-32.492323-127.238845C948.59153 577.407695 1023.917745 549.284088 1023.917745 512.013482z m-611.142371 167.000984c0 18.225736-3.754365 32.526454-11.194834 42.936284-7.4746 10.3757-19.795743 16.314423-37.031692 17.747908-17.440732 1.433485-34.915595 2.150227-52.390458 2.150227a1272.559104 1272.559104 0 0 0-12.491797-63.551162l35.086249 1.194571c10.170916 0 15.256374-6.860249 15.256374-20.614877v-89.251497l-48.46544 10.102655-3.720234-69.080317c16.485076-2.081966 33.857547-4.573499 52.185674-7.440469v-85.155826H300.144422V358.084514h49.830663V277.024359h62.800289v81.060155h47.100216v59.967449h-47.100216v74.131645l53.550898-10.341569c-0.955657 3.549582-2.935231 25.256638-6.006984 65.257691l-47.543914 9.82961v122.085126z m347.34703-171.574484h-67.407919v237.446525h-62.766158v-237.446525h-83.073859v2.901101c0 101.53851-21.092706 181.301702-63.243986 239.357838a444.789869 444.789869 0 0 0-49.386966-55.155036c33.243196-41.57106 49.830664-107.784408 49.830663-198.605912V310.779514a1391.640738 1391.640738 0 0 0 250.655064-25.905119l20.307702 64.267904c-47.987612 7.372208-117.409235 14.710285-208.196608 22.082493v74.814256h213.282067v61.435065z" fill="#E24848" p-id="3100"></path></svg>