<?xml version="1.0" standalone="no"?><!DOCTYPE svg PUBLIC "-//W3C//DTD SVG 1.1//EN" "http://www.w3.org/Graphics/SVG/1.1/DTD/svg11.dtd"><svg t="1542598205348" class="icon" style="" viewBox="0 0 1024 1024" version="1.1" xmlns="http://www.w3.org/2000/svg" p-id="1907" xmlns:xlink="http://www.w3.org/1999/xlink" width="200" height="200"><defs><style type="text/css"></style></defs><path d="M744.358269 1024H279.629393A93.764985 93.764985 0 0 1 186.012458 930.370727V93.629273A93.764985 93.764985 0 0 1 279.629393 0h464.728876a93.764985 93.764985 0 0 1 93.629273 93.629273V930.370727a93.764985 93.764985 0 0 1-93.629273 93.629273z m-464.716538-980.831094a50.472704 50.472704 0 0 0-50.39868 50.423354V930.370727a50.472704 50.472704 0 0 0 50.39868 50.423355h464.716538a50.472704 50.472704 0 0 0 50.423355-50.423355V93.629273a50.472704 50.472704 0 0 0-50.423355-50.423355z" fill="#9E9E9F" p-id="1908"></path><path d="M756.720442 891.458259H267.291895V136.329353h489.428547zM297.54344 861.256063h428.925457V166.543886H297.54344zM444.384342 73.506813h135.231316v30.214533H444.384342zM444.384342 922.388366h135.231316v30.214533H444.384342z" fill="#9E9E9F" p-id="1909"></path></svg>