<?xml version="1.0" standalone="no"?><!DOCTYPE svg PUBLIC "-//W3C//DTD SVG 1.1//EN" "http://www.w3.org/Graphics/SVG/1.1/DTD/svg11.dtd"><svg t="1542249095997" class="icon" style="" viewBox="0 0 1024 1024" version="1.1" xmlns="http://www.w3.org/2000/svg" p-id="1817" xmlns:xlink="http://www.w3.org/1999/xlink" width="200" height="200"><defs><style type="text/css"></style></defs><path d="M518.4 928c-51.2-6.4-76.8-12.8-128-38.4-96-44.8-179.2-147.2-211.2-256-25.6-102.4-6.4-217.6 57.6-307.2 51.2-76.8 121.6-134.4 230.4-166.4 25.6-12.8 44.8-19.2 44.8-25.6 0-6.4-12.8-19.2-25.6-32-25.6-25.6-32-38.4-12.8-57.6 19.2-19.2 38.4-12.8 76.8 19.2 19.2 19.2 51.2 44.8 70.4 57.6 38.4 32 51.2 44.8 44.8 64 0 12.8-64 89.6-102.4 134.4-19.2 32-38.4 38.4-51.2 25.6-6.4 0-12.8-12.8-19.2-19.2-6.4-12.8 0-32 32-64 12.8-12.8 19.2-25.6 19.2-32 0-6.4-25.6-12.8-57.6-6.4-57.6 19.2-102.4 44.8-153.6 89.6-19.2 25.6-44.8 57.6-51.2 70.4-51.2 102.4-51.2 224 6.4 320 25.6 44.8 83.2 102.4 128 121.6 102.4 51.2 217.6 44.8 313.6-6.4 115.2-64 179.2-211.2 153.6-332.8-6.4-44.8-38.4-102.4-64-134.4s-32-44.8-25.6-64c6.4-19.2 25.6-25.6 44.8-19.2 32 12.8 89.6 102.4 108.8 166.4 12.8 51.2 12.8 160 0 211.2-12.8 44.8-51.2 115.2-76.8 147.2-25.6 32-83.2 76.8-121.6 102.4-64 25.6-153.6 38.4-230.4 32z m0 0" p-id="1818" fill="#d81e06"></path></svg>