<?xml version="1.0" standalone="no"?><!DOCTYPE svg PUBLIC "-//W3C//DTD SVG 1.1//EN" "http://www.w3.org/Graphics/SVG/1.1/DTD/svg11.dtd"><svg t="1544579938987" class="icon" style="" viewBox="0 0 1024 1024" version="1.1" xmlns="http://www.w3.org/2000/svg" p-id="2909" xmlns:xlink="http://www.w3.org/1999/xlink" width="400" height="400"><defs><style type="text/css"></style></defs><path d="M332 0L0 334v690L1024 0H332z m174.38 154.146c17.558-6.62 35.114-17.268 52.671-31.949 3.023 8.493 5.684 15.472 7.988 20.939-23.314 15.542-45.262 26.265-65.84 32.164-6.189 20.006-15.686 40.872-28.494 62.603-5.9-2.446-12.736-4.534-20.508-6.261 12.232-17.699 21.587-34.971 28.063-51.809-17.556 2.304-34.177 0.793-49.865-4.533l-7.555 7.555-12.089-12.089 84.835-84.835 11.441 11.441c3.311 17.991 3.095 36.917-0.647 56.774zM389.164 361.595c-5.9-0.143-12.736 0.074-20.508 0.647 0.146-21.442-8.777-41.158-26.767-59.147l-26.336-26.336 90.664-90.664 42.094 42.094-78.144 78.144c12.664 17.558 18.997 35.979 18.997 55.262z m45.549-314.951l23.744 23.745c3.744 3.743 7.627 3.599 11.658-0.432l18.132-18.132a834.915 834.915 0 0 0 9.066 16.406l-20.075 20.075c-9.355 9.355-19.141 8.923-29.358-1.295l-14.463-14.463-34.106 34.107 4.101 4.101c13.097 13.097 16.694 30.511 10.793 52.24a322.649 322.649 0 0 0-20.507-0.216c6.045-16.979 4.318-30.221-5.18-39.72l-15.111-15.111 61.306-61.305zM289.434 175.517l14.679-14.679 14.464 14.463 48.569-48.57 11.872 11.873-48.569 48.57 13.601 13.6 41.014-41.015 11.873 11.872-98.437 98.436-11.873-11.872 42.742-42.742-13.6-13.6-51.377 51.376-11.872-11.873 51.376-51.376-14.462-14.463zM104.436 523.711c-7.34-1.582-15.254-2.732-23.746-3.453 1.438-41.445-4.678-81.237-18.349-119.375l21.155-9.93c3.453 11.516 6.477 22.74 9.066 33.676l65.624-65.624c-10.65-2.589-21.948-4.82-33.892-6.693l5.613-22.018c14.533 1.871 28.062 4.03 40.582 6.476l-3.237 13.168 79.007-79.007 13.383 13.383-76.633 76.633 15.543 15.542 69.941-69.941 13.384 13.384-69.94 69.941 15.542 15.542 69.94-69.941 13.385 13.384-69.941 69.942 15.975 15.974 80.949-80.95 13.385 13.384-167.514 167.513 8.418 8.418-15.974 15.975-73.179-73.179c1.008 12.808 1.513 25.401 1.513 37.776z m297.248-34.323l-11.009-11.009-131.247 131.248 11.009 11.009-15.974 15.974-69.51-69.509 163.195-163.196 69.51 69.509-15.974 15.974z m211.335-225.149L472.273 404.984l-32.381-32.381 15.326-15.326 19.645 19.645 55.047-55.047-25.041-25.041-98.867 98.867-12.736-12.736 98.867-98.867-17.27-17.27-45.332 45.332c1.007 8.492 1.367 17.343 1.08 26.552-6.619 0.002-13.457 0.504-20.508 1.511 1.583-18.563-0.648-36.481-6.692-53.751l16.622-16.622a170.894 170.894 0 0 1 6.044 20.723L542.43 174.221l12.521 12.52-64.761 64.761 17.27 17.27 97.141-97.14 12.736 12.736-97.141 97.14 25.041 25.041 55.046-55.046-19.645-19.645 15.327-15.327 40.151 40.152-15.327 15.327-7.77-7.771z" p-id="2910"></path><path d="M359.58 293.603l-18.78-18.78 25.04-25.04 18.78 18.78zM125.37 476.434l70.589-70.588 15.542 15.542-70.589 70.588zM167.036 376.921l-69.725 69.725 0.431 2.159 14.248 14.247 70.588-70.589zM154.295 505.364l70.587-70.588 15.974 15.973-70.588 70.588zM444.857 160.838c13.959 2.16 27.775 1.872 41.447-0.863 3.596-15.109 4.749-29.79 3.453-44.037l-44.9 44.9zM245.61 595.816l-30.869-30.87L345.987 433.7l30.87 30.87zM379.016 236.614l25.257-25.256 18.78 18.78-25.257 25.256z" p-id="2911"></path></svg>