<?xml version="1.0" standalone="no"?><!DOCTYPE svg PUBLIC "-//W3C//DTD SVG 1.1//EN" "http://www.w3.org/Graphics/SVG/1.1/DTD/svg11.dtd"><svg t="1545980032420" class="icon" style="" viewBox="0 0 1142 1024" version="1.1" xmlns="http://www.w3.org/2000/svg" p-id="4551" xmlns:xlink="http://www.w3.org/1999/xlink" width="223.046875" height="200"><defs><style type="text/css"></style></defs><path d="M122.092308 23.630769l460.8 425.353846 90.584615-82.707692c-19.692308-35.446154-27.569231-70.892308-23.630769-106.338461s23.630769-70.892308 55.138461-102.4c27.569231-27.569231 90.584615-74.830769 189.046154-145.723077 11.815385-7.876923 19.692308-7.876923 31.507693-3.938462s19.692308 11.815385 23.630769 23.630769 0 19.692308-3.938462 31.507693l-157.538461 181.16923v7.876923c3.938462 3.938462 3.938462 3.938462 7.876923 3.938462l185.107692-153.6c11.815385-7.876923 19.692308-7.876923 31.507692-3.938462s19.692308 11.815385 23.63077 23.63077 3.938462 19.692308-3.938462 31.507692l-153.6 185.107692c0 3.938462 0 3.938462 3.938462 7.876923s3.938462 3.938462 7.876923 0l181.16923-157.538461c7.876923-7.876923 15.753846-7.876923 27.569231-3.938462s19.692308 11.815385 23.630769 23.63077 3.938462 19.692308-3.938461 31.507692c-15.753846 15.753846-35.446154 43.323077-59.076923 74.830769-39.384615 55.138462-70.892308 90.584615-86.646154 106.338462-31.507692 31.507692-66.953846 51.2-102.4 55.138461s-70.892308-3.938462-106.338462-23.630769l-78.76923 86.646154 299.323077 275.692307c11.815385 11.815385 19.692308 27.569231 19.692307 43.323077s-3.938462 31.507692-15.753846 43.323077l-63.015384 59.076923c-11.815385 11.815385-27.569231 19.692308-43.323077 19.692308s-31.507692-7.876923-43.323077-19.692308L433.230769 496.246154c-145.723077 0-252.061538-39.384615-322.953846-118.153846C47.261538 307.2 15.753846 204.8 15.753846 66.953846 15.753846 51.2 19.692308 35.446154 31.507692 23.630769S59.076923 7.876923 78.769231 3.938462s27.569231 3.938462 43.323077 19.692307zM157.538462 909.784615c-11.815385-11.815385-15.753846-27.569231-15.753847-47.261538s7.876923-31.507692 19.692308-43.323077l263.876923-236.307692 110.276923 129.96923-228.430769 252.061539c-11.815385 15.753846-27.569231 19.692308-43.323077 19.692308s-31.507692 0-43.323077-11.815385L157.538462 909.784615z" p-id="4552" fill="#d81e06"></path></svg>