<?xml version="1.0" standalone="no"?><!DOCTYPE svg PUBLIC "-//W3C//DTD SVG 1.1//EN" "http://www.w3.org/Graphics/SVG/1.1/DTD/svg11.dtd"><svg t="1543973410796" class="icon" style="" viewBox="0 0 1024 1024" version="1.1" xmlns="http://www.w3.org/2000/svg" p-id="1095" xmlns:xlink="http://www.w3.org/1999/xlink" width="400" height="400"><defs><style type="text/css"></style></defs><path d="M798.9 228.9c-156-156-408.8-156-564.8 0C95.5 367.6 80.1 582.8 188 738.5l-55.1 147.1c-8 21.2 2.8 31.8 23.9 23.9l152-57C462.5 946.3 666 926.7 799 793.7c155.8-156 155.8-408.8-0.1-564.8z m-455 490.6H307V348.7h36.9v370.8z m-13.3-440.3l27-24.1c17.3 16.4 40.2 39.4 68.6 69l-30.7 27c-27.2-31.5-48.8-55.5-64.9-71.9z m118.7 314v27h-34.1V404.1h200.5v189.2H449.3z m276.2 57.7c0 45.7-20.7 68.6-62 68.6-26.8 0-52.7-0.3-77.6-0.9-1.3-9.5-3.8-22.2-7.6-38.3 26.2 1.9 51.4 2.8 75.7 2.8 23 0 34.5-12.3 34.5-36.9V320.8H455v-35.5h270.5v365.6z" fill="#E83532" p-id="1096"></path><path d="M449.3 439h132.4v119.2H449.3z" fill="#E83532" p-id="1097"></path></svg>