<?xml version="1.0" standalone="no"?><!DOCTYPE svg PUBLIC "-//W3C//DTD SVG 1.1//EN" "http://www.w3.org/Graphics/SVG/1.1/DTD/svg11.dtd"><svg t="1543973610672" class="icon" style="" viewBox="0 0 1024 1024" version="1.1" xmlns="http://www.w3.org/2000/svg" p-id="1834" xmlns:xlink="http://www.w3.org/1999/xlink" width="400" height="400"><defs><style type="text/css"></style></defs><path d="M793.6 794.5c-133 133-336.4 152.6-490.2 58.8l-152 57c-21.1 7.9-31.9-2.7-23.9-23.9l55.1-147.1C74.8 583.6 90.2 368.4 228.8 229.7c156-156 408.8-156 564.8 0 156 156 156 408.8 0 564.8zM372.5 358.3h42.3c9.8 17.7 19.2 36.4 27 56l31.9-11.8c-6.7-15.2-14.5-30-23.1-44.2H520v-32.4H387.8c4.9-12.8 9.8-25.6 14.3-38.8l-33.9-7.4c-13.8 44.7-36.4 85.5-67.3 122.9l30 19.2c15.9-19.8 29.9-41 41.6-63.5z m203 0h47.2c12.8 20.3 24.2 41.5 33.9 63.4l31.9-11.3c-7.4-15.7-17.2-33.4-29-52.1h79.6v-32.4H591.8c4.9-11.8 9.8-24.6 14.3-38.3l-33.9-7.4c-11.2 37.8-29.9 72.9-55.1 103.2l29.5 18.2c10.3-13.8 20.1-28 28.9-43.3z m92.9 221.2H374.5v155.3h33.9v-22.1h226.1v22.1h33.9V579.5z m-260 100.8V612h226.1v68.3H408.4z m0-168.6v22.1h227.1v-22.1c30.3 16.5 61.7 30.9 93.9 43.3l17.2-30.5c-80.6-29-151.9-68.3-213.8-118.5h-23.6c-56 46.7-125.8 86-209.9 117.5l16.7 31c31.6-12.6 62.4-26.9 92.4-42.8z m207.9-10.8H427.6c33.3-19.3 64.6-41.8 93.4-67.3 29.6 25.3 61.5 47.9 95.3 67.3z m0 0" fill="#d81e06" p-id="1835"></path></svg>