<?xml version="1.0" standalone="no"?><!DOCTYPE svg PUBLIC "-//W3C//DTD SVG 1.1//EN" "http://www.w3.org/Graphics/SVG/1.1/DTD/svg11.dtd"><svg t="1543802213873" class="icon" style="" viewBox="0 0 1024 1024" version="1.1" xmlns="http://www.w3.org/2000/svg" p-id="3103" xmlns:xlink="http://www.w3.org/1999/xlink" width="400" height="400"><defs><style type="text/css"></style></defs><path d="M749.568 236.885333c9.045333 0 17.664 1.877333 25.941333 5.632 8.192 3.754667 15.530667 8.618667 21.930667 14.506667 12.970667 13.056 20.138667 30.805333 19.882667 49.237333v481.621334c0 9.728-1.706667 18.688-5.205334 27.050666-3.413333 8.362667-8.277333 15.445333-14.762666 21.418667-6.229333 6.4-13.653333 11.434667-21.930667 14.933333s-16.896 5.205333-25.856 5.205334H273.322667c-8.96 0-17.664-1.792-25.856-5.205334-8.192-3.498667-15.616-8.533333-21.930667-14.933333-6.4-5.973333-11.434667-13.226667-14.762667-21.333333-3.498667-8.618667-5.290667-17.749333-5.12-27.050667V306.261333c0-9.728 1.877333-18.688 5.632-27.050666 3.669333-8.277333 8.448-15.701333 14.336-22.186667 6.4-5.888 13.653333-10.752 21.930667-14.506667 8.106667-3.754667 16.896-5.717333 25.856-5.717333h34.218667v-68.522667h67.754666v68.608H647.68v-68.608h67.754667v68.608h34.133333z m0 551.082667V409.6h-476.16v378.368h476.16z m-68.437333-309.76v68.522667H341.845333v-68.608h339.285334v0.085333zM579.157333 616.106667v68.608H341.845333V616.106667h237.312z m0 0" p-id="3104" fill="#bfbfbf"></path></svg>